<?xml version="1.0" encoding="utf-8"?>
<!-- Generator: Adobe Illustrator 18.0.0, SVG Export Plug-In . SVG Version: 6.00 Build 0)  -->
<!DOCTYPE svg PUBLIC "-//W3C//DTD SVG 1.1//EN" "http://www.w3.org/Graphics/SVG/1.1/DTD/svg11.dtd">
<svg version="1.1" id="Calque_1" xmlns="http://www.w3.org/2000/svg" xmlns:xlink="http://www.w3.org/1999/xlink" x="0px" y="0px"
	 viewBox="14.6 20.2 267.2 259.6" enable-background="new 14.6 20.2 267.2 259.6" xml:space="preserve">
<g id="BG">
	
		<image display="none" overflow="visible" enable-background="new    " width="3247" height="3247" id="Light_Grey" xlink:href="E1675800E5A930F0.png"  transform="matrix(9.239957e-02 0 0 9.239298e-02 0 0)">
	</image>
</g>
<g id="Extras">
	<path id="Ground" display="none" fill="none" d="M175.7,170c4.1,4.6,17.1,0.9,24.1,5.1c11.8,7.1,43.5,9.7,42.3,14.7
		c-1.7,7.1-24.1,15.1-32.9,17.4c-28.1,7.3-21.4,17.3-57.5,16.9c-55.1-0.7-30.3-18.6-84-25.1c-8.9-1.1-12.6-4.2-12.7-7.8
		c-0.3-11.9,27.4-14.4,28.2-14.4c9.5-0.9,12.1-1.5,16.8-3.6c4.4-1.9,24.4-6.3,24.3-6.3C147.3,164.1,167.9,166.5,175.7,170z"/>
	<g id="Colors" display="none">
		<rect id="Brown" x="14.6" y="20.2" display="inline" fill="#423E3B" width="18" height="18"/>
		<rect id="Dark_grey" x="14.6" y="42.3" display="inline" fill="#C8C6C5" width="18" height="18"/>
		<rect id="Light_grey" x="14.6" y="65.2" display="inline" fill="#E3E1E1" width="18" height="18"/>
	</g>
	<g id="Txt_bck">
		<g id="Sur_Un_Baobab_1_">
			<path fill="#423E3B" d="M27.9,203.2c-0.9-0.6-1.8-0.9-2.7-1.1c-0.9-0.2-1.8,0-2.7,0.4c-1,0.6-1.7,1.9-2.1,4.2
				c0,0.4-0.2,1.8-0.4,4.3c-0.1,1-0.1,1.9,0.1,2.8c0.1,0.9,0.4,1.7,0.8,2.5c0.4,0.8,0.7,1.5,1.1,2c0.3,0.5,0.8,1.2,1.4,1.9l1.4,1.9
				c0.3,0.4,0.6,1,1.1,1.8c0.4,0.8,0.8,1.6,1,2.4c0.2,0.8,0.3,1.6,0.4,2.6c0,0,0,0.2,0.1,0.9c0,0.5,0,0.9,0,1c0,0.2,0,0.4,0,0.7
				s0,0.6-0.1,0.9c-0.3,1.3-0.9,2.2-2,2.8c-0.8,0.5-2,0.9-3.6,1c0,0-0.1,0-0.4,0c-0.2,0-0.3,0-0.4,0c-0.1,0-0.2,0-0.3,0h0
				c-0.4-0.2-0.6-0.8-0.7-1.7c-0.1-1,0-1.8,0.3-2.3c0.1-0.3,0.2-0.5,0.1-0.6c0-0.2-0.2-0.3-0.4-0.5c-0.2-0.1-0.5-0.2-0.6-0.1
				c-0.2,0-0.3,0.2-0.4,0.4c-0.5,0.9-0.6,2-0.5,3.3c0.2,1.6,0.8,2.7,1.8,3c0.2,0.1,0.4,0.1,0.6,0.1c0.2,0,0.3,0,0.5,0
				c0.1,0,0.3,0,0.5,0c0.1,0,0.2,0,0.3,0c1.8-0.1,3.3-0.6,4.3-1.2c1.4-0.8,2.3-2.1,2.7-3.9c0-0.3,0.1-0.6,0.1-0.8c0-0.3,0-0.6,0-0.9
				c0-0.3,0-0.6,0-0.8c0-0.2,0-0.5-0.1-0.8c0-0.3,0-0.6,0-0.7c0-1-0.2-2-0.5-2.9c-0.3-0.9-0.6-1.8-1.1-2.7c-0.5-0.9-0.9-1.5-1.2-1.9
				c-0.3-0.4-0.8-1.1-1.5-1.9c-0.7-1-1.3-1.8-1.7-2.4c-0.4-0.6-0.7-1.5-1-2.4c-0.3-1-0.4-2.1-0.3-3.2c0.3-2.6,0.4-3.9,0.4-4.2
				c0.3-1.7,0.7-2.7,1.3-3c0.4-0.2,0.9-0.3,1.6-0.2c0.7,0.1,1.4,0.4,2.1,0.9s1.2,0.9,1.6,1.5c0.4,0.6,0.5,1.1,0.4,1.5
				c0,0.2,0,0.4,0.1,0.6c0.1,0.2,0.3,0.3,0.6,0.3c0.2,0,0.4,0,0.6-0.1c0.2-0.1,0.3-0.3,0.3-0.6c0.1-0.9-0.1-1.8-0.6-2.6
				C29.5,204.4,28.8,203.7,27.9,203.2z"/>
			<path fill="#423E3B" d="M48.7,240c-0.1,0-0.3,0-0.4,0c-0.2,0-0.2,0-0.2,0c0,0-0.1,0-0.1,0v0c0-0.1-0.1-0.5,0-1.3
				c0-1.2,0.1-1.7,0.1-1.8c-0.3-4.6-0.4-8.3-0.3-10.8c0-0.3,0-0.7,0.1-1.1c0,0,0-0.2,0.1-0.6c0-0.3,0.1-0.5,0.1-0.7
				c0.2-1.1,0.2-2,0-2.7v0c0,0,0,0,0,0l0-0.2l-0.2-0.2c-0.1-0.1-0.1-0.1-0.2-0.2c-0.4-0.1-0.7,0-0.9,0.3c-0.1,0-0.1,0.1-0.2,0.3
				c0,0.1,0,0.2,0,0.3v0.3l0,0.1v0c0,0.2,0,0.4,0,0.9c0,0.3,0,0.7-0.1,1c0,0.3,0,0.7-0.1,1.4c0,0.6-0.1,1.2-0.1,1.6
				c0,0.4-0.1,0.9-0.2,1.2c-0.1,0.7-0.3,1.9-0.4,3.5c-0.2,1.5-0.3,2.7-0.5,3.4c-0.5,2.4-1.6,4.1-3.2,5c-0.2,0.1-0.3,0.2-0.5,0.3
				c-0.2,0.1-0.3,0.2-0.3,0.2l-0.3,0.1c-0.1,0-0.2,0-0.4,0c-0.6,0-1-0.6-1.3-1.7c-0.3-1.2-0.6-2.9-0.6-5c0-1.7,0-3.5,0.2-5.3
				s0.3-3.2,0.5-4.1c0-0.2,0-0.4-0.1-0.6c-0.1-0.2-0.3-0.3-0.5-0.3c-0.2,0-0.4,0-0.6,0.1s-0.3,0.3-0.3,0.5c-0.2,0.9-0.3,2.4-0.5,4.2
				c-0.2,1.8-0.2,3.7-0.2,5.4c0,2.4,0.3,4.2,0.6,5.5c0.6,1.8,1.5,2.7,2.8,2.7c0,0,0.1,0,0.1,0c0.3,0,0.5,0,0.7-0.1s0.4-0.1,0.5-0.2
				c0.1,0,0.3-0.1,0.5-0.3c0.2-0.1,0.3-0.2,0.4-0.3c2-1,3.3-2.8,3.9-5.4l0.1,1.2c0,0.1,0,1.2-0.1,1.7c-0.1,1,0,1.7,0.2,2.1
				c0.1,0.2,0.2,0.3,0.3,0.5c0.1,0.1,0.3,0.3,0.5,0.3c0.2,0.1,0.3,0.1,0.4,0.1c0.1,0,0.2,0,0.4,0.1l0.2,0c0.2,0,0.4,0,0.6-0.1
				c0.2-0.1,0.3-0.3,0.3-0.5c0-0.2,0-0.4-0.1-0.6C49.1,240.2,48.9,240,48.7,240z"/>
			<path fill="#423E3B" d="M63.7,216.8c-0.2-0.1-0.3-0.2-0.6-0.1c-1.6,0.3-2.7,0.6-3.3,1.1c-1.2,1-1.9,3-2.1,5.9c0,0.5,0,1.1,0,1.8
				c-0.2-0.8-0.3-1.4-0.3-1.5c-0.1-0.3-0.2-1.5-0.3-3.3c-0.1-1.6-0.4-2.8-0.8-3.6l0,0c-0.2-0.4-0.6-0.6-1-0.4
				c-0.2,0.1-0.4,0.3-0.4,0.4c-0.1,0.2,0,0.4,0,0.6c0.3,0.6,0.5,1.7,0.6,3.1c0.2,2,0.3,3.1,0.3,3.6c0,0.1,0.1,0.6,0.6,2.6
				c0.3,1.1,0.4,2,0.5,2.6c0,0.1,0.1,0.8,0.3,3.6c0.1,0.9,0.1,1.7,0.2,2.2c0,0.3,0,0.6,0.1,0.8c0,0.1,0,0.2,0,0.2v0
				c0,0.1,0,0.2,0.1,0.3c0,0.1,0.1,0.1,0.1,0.2c0.1,0.1,0.3,0.3,0.5,0.3c0,0,0.1,0,0.1,0c0.3,0,0.4-0.1,0.6-0.3
				c0.1-0.1,0.1-0.2,0.2-0.3c0-0.1,0-0.2,0-0.3v0v-0.4c0-0.3,0-0.4,0.1-0.5v0c0-0.1,0-0.1,0-0.2V235c0-0.2,0-0.4,0-0.6
				c0.1-1.4,0.1-2.9,0-4.7c0,0,0-0.3-0.1-1.7c-0.1-1-0.1-1.7-0.1-2s0-1,0-2.2c0.2-2.5,0.7-4.1,1.5-4.8c0.4-0.3,1.2-0.6,2.5-0.8
				c0.2,0,0.4-0.1,0.5-0.3c0.1-0.2,0.2-0.3,0.1-0.6C64,217.1,63.9,216.9,63.7,216.8z"/>
			<path fill="#423E3B" d="M97.8,214.3c0-0.2-0.1-0.7-0.9-0.7s-0.9,0.5-0.9,0.7c0,1.2,0.1,3.5,0.2,6.7c0.1,3.2,0.2,6,0.1,8.2
				c-0.1,2.2-0.4,4.4-0.9,6.6c-0.4,1.8-1,3.1-1.8,4c-1.1,1.2-2.5,1.5-4.4,0.9c-0.9-0.3-1.7-1.1-2.2-2.5c-0.3-0.9-0.6-2.1-0.8-3.7
				c-0.5-3.9-0.3-9,0.3-15.5c0-0.4,0.2-1.2,0.4-2.4c0.2-1.1,0.3-2,0.3-2.6c0-0.2-0.1-0.7-0.9-0.7s-0.9,0.5-0.9,0.7
				c0,0.6-0.1,1.4-0.3,2.4c-0.3,1.3-0.4,2.1-0.5,2.5c-0.7,6.5-0.8,11.8-0.3,15.7c0.2,1.7,0.5,3,0.8,4c0.7,1.8,1.8,3,3.3,3.4
				c0.8,0.2,1.5,0.3,2.2,0.3c1.6,0,3-0.6,4-1.7c1-1.1,1.8-2.7,2.2-4.7c0.5-2.1,0.8-4.4,0.9-6.7c0.1-2.3,0.1-5.1-0.1-8.3
				C97.8,217.7,97.8,215.5,97.8,214.3z"/>
			<path fill="#423E3B" d="M115,227.7c-0.3-0.6-0.7-1-1.1-1.3c-0.6-0.5-1.2-0.6-1.9-0.6c-1.2,0.1-2.3,0.8-3.3,2.1
				c-0.7,0.9-1.5,2.2-2.2,3.9c-0.4,0.9-0.8,1.9-1.2,3c-0.2-4.5-0.2-7.1-0.2-7.7c0-0.2-0.1-0.7-0.9-0.7s-0.9,0.5-0.9,0.7
				c0,1.4,0,3.6,0.2,6.4c0.1,2.8,0.2,4.9,0.2,6.3c-0.2,0.7-0.4,1.4-0.5,1.9c-0.2,0.6-0.3,1.1-0.3,1.5v0.6v0c0,0.1,0.1,0.3,0.2,0.3
				c0.1,0.2,0.3,0.4,0.6,0.4c0.3,0,0.6,0,0.9-0.3c0.1-0.1,0.2-0.2,0.2-0.3c0.1-0.1,0.1-0.2,0.2-0.4c0.1-0.3,0.2-0.6,0.2-1.1
				c0.2-0.9,0.2-1.8,0.2-2.7c0.1-0.3,0.2-0.5,0.2-0.6c0-0.1,0.2-0.7,0.5-1.6c0.3-0.9,0.6-1.9,0.9-2.8s0.6-1.8,1-2.6
				c0.6-1.5,1.3-2.7,2-3.6c0.7-0.9,1.4-1.4,2.1-1.5c0.2,0,0.3,0,0.5,0.2c0.3,0.2,0.5,0.5,0.8,0.9c0.4,0.8,0.7,1.5,0.8,2.2
				c0,0.6,0.1,1.3,0.1,2s0,1.3,0,1.8c0,0.5-0.1,1.2-0.2,2.1c-0.1,0.9-0.1,1.5-0.2,1.9c0,0.7,0,1.8,0.1,3.3c0.1,1.5,0.2,2.6,0.2,3.2
				c0,0.2,0.1,0.7,0.9,0.7s0.9-0.5,0.9-0.7c0-0.6,0-1.7-0.2-3.3c-0.1-1.3-0.2-2.4-0.1-3.1c0-0.5,0.1-1.1,0.1-1.9
				c0.1-0.9,0.2-1.6,0.2-2.1c0-0.5,0-1.2,0-1.9s0-1.5-0.1-2.1C115.9,229.5,115.5,228.6,115,227.7z"/>
			<path fill="#423E3B" d="M154,216.9h-0.5c-1.5,0-3.2,0.5-4.8,1.3c0.1-0.9,0.4-2.6,1-5.1v-2.5v-0.1c-1.4-4.4-3.6-6.6-6.7-6.6
				c-4.6,0-7.2,3.9-7.7,11.7v5.5c2.7,18.5,4.5,20.6,5.7,20.6h0l1.2-0.6v-0.2c-1.6-12-2.8-22.8-3.5-31.9c0-1.5,1.2-2.4,3.8-2.8h1.9
				c2.2,1.4,3.3,3,3.3,4.8v1c0,3.3-1.7,6.6-4.9,9.8l0,0v2l0.3-0.2c5.4-3.3,9.1-4.9,10.9-4.9c0.2,0,0.3,0.1,0.3,0.3v0.2h0.2
				c4.6,0,8.1,3,10.2,8.8v1.9c-1.9,5.5-6.6,8.3-13.8,8.3h-3c-1.4,0-3-0.8-4.8-2.4l0,0h-0.8v1.3l0,0c1.6,2.4,4.2,3.6,7.7,3.6l0,0
				l3-0.5c6.8,0,11.6-3.6,14.2-10.6v-0.1c0-1.5-0.3-2.9-1-4.1C162.3,219.8,158.2,216.9,154,216.9z M138.3,228.1v0.3h-0.1
				c-0.6-4.6-0.9-7.9-0.9-9.8v-4.8h0.1L138.3,228.1z"/>
			<path fill="#423E3B" d="M194.6,242.6c-2.6-1.7-4.5-3.8-5.6-6c-2.4-10.9-3.2-10.9-3.5-10.9h-0.6v0.2c0,0.3-0.1,0.6-0.4,1.2l0,0.1
				l0,0.1c0.5,1.6,0.8,3,0.8,4.1c0,5.7-1.8,9-5.2,9.8c-2.6-0.3-3.9-1.1-3.9-2.3c0-5.6,1.9-9.3,5.6-11l1.6,0.4h0.7v-0.7l0,0
				c-0.5-0.9-0.9-1.4-1.5-1.4h-1.2h-0.1c-4.5,2.1-6.8,6.1-6.8,11.8c0,3,1.8,4.6,5.2,4.8c2,0,3.9-1,5.6-3l0,0v0
				c0.9-3.4,1.4-4.6,1.7-5c0.2,3.3,2.6,6.6,7.2,9.7l0,0h1.3c0.7,0,1.1-0.4,1.1-1.1v-1.1h-0.2C195.6,242.2,195,242.4,194.6,242.6z"/>
			<path fill="#423E3B" d="M207.8,221.1c-1.6-1.1-3.6-1.5-5.8-1.1c-1,0.2-2.1,1-3.4,2.6c-1.3,1.6-2.1,3.1-2.4,4.5
				c-0.3,1.3-0.3,2.8-0.1,4.5c0.2,1.7,0.7,3.3,1.4,4.6c0.8,1.5,1.9,2.6,3.2,3.2c0.6,0.3,1.3,0.4,2.1,0.4c0.3,0,0.7,0,1.1-0.1
				c1.2,0.1,2.2-0.3,3.3-1.2c1-0.8,1.8-2.1,2.6-3.6c0.7-1.5,1.2-3,1.5-4.5c0.3-1.5,0.4-2.9,0.3-3.9
				C211.1,224.3,209.9,222.5,207.8,221.1z M202.8,238.3c-0.6,0-1.1-0.1-1.6-0.3c-0.9-0.4-1.8-1.2-2.4-2.5c-0.6-1.2-1-2.5-1.2-4.1
				c-0.2-1.5-0.2-2.9,0.1-4.1c0.3-1.2,0.9-2.4,2.1-3.9c1-1.3,1.8-2,2.5-2.1c0.5-0.1,0.9-0.1,1.3-0.1c1.3,0,2.4,0.3,3.4,1
				c1.7,1.2,2.7,2.7,3,4.4c0.1,0.9,0,2-0.3,3.4s-0.8,2.8-1.4,4.1c-0.7,1.4-1.5,2.4-2.2,3.2c-0.2,0.1-0.3,0.3-0.5,0.3
				c-0.2-0.1-0.4-0.1-0.6,0c-0.4,0.2-0.9,0.3-1.3,0.4l-0.3-0.1C203.1,238,202.9,238.1,202.8,238.3z"/>
			<path fill="#423E3B" d="M221.6,222.2c-0.8-0.4-1.6-0.6-2.4-0.6l0.2-1.5c0.2-1.2,0.3-2.1,0.3-2.9c0-0.9,0-2.4,0-4.3
				c-0.1-1.8-0.1-3.2,0-4.1c0-0.3,0-0.9,0.1-1.5s0.2-1.2,0.2-1.7c0-0.4,0-1,0-1.8l0,0c0-0.3-0.2-0.4-0.3-0.6
				c-0.2-0.1-0.4-0.2-0.6-0.2c-0.3,0-0.4,0.2-0.6,0.3c-0.1,0.2-0.2,0.4-0.2,0.6c0,0.7,0.1,1.2,0,1.5c0,0.3-0.1,0.8-0.2,1.5
				c-0.1,0.7-0.1,1.2-0.2,1.7c0,1,0,2.4,0,4.3c0,1.8,0.1,3.3,0,4.2c0,0.7-0.1,1.5-0.3,2.6c0,0.2-0.1,0.4-0.1,0.7
				c0,0.3-0.1,0.6-0.1,0.9l-0.1,0.6c-0.1,0.1-0.3,0.2-0.3,0.3c-0.4,0.3-0.5,0.8-0.1,1.2c0.1,0.1,0.2,0.2,0.3,0.3
				c-0.1,1.5-0.2,4.5-0.2,9c0,2,0,3.6,0,4.8c0,1.2,0.1,2.1,0.1,2.9c0,0.4,0.1,0.8,0.1,1.1c0,0.2,0.1,0.3,0.1,0.4
				c0.1,0.3,0.2,0.4,0.4,0.5c0.3,0.3,0.7,0.4,1.2,0.4l0.8,0.1c0.6,0.1,1.1,0.2,1.6,0.2c1.3,0,2.6-0.4,3.6-1.2
				c1.5-1.1,2.7-2.6,3.3-4.5c1.4-4.2,0.2-8.5-3.5-12.7C223.9,223.6,222.8,222.7,221.6,222.2z M226.8,237.1c-0.5,1.5-1.4,2.7-2.6,3.6
				c-1.2,0.8-2.5,1-4,0.7h0c0,0-0.1,0-1-0.1c0,0,0,0-0.2,0c0-0.2-0.1-0.5-0.1-0.8c0-0.7-0.1-1.7-0.1-2.8c0-1.1,0-2.7,0-4.7
				c0-4.8,0.1-8,0.2-9.5c0.5-0.1,1.2,0,1.8,0.3c0.9,0.5,1.9,1.2,2.8,2.3C226.9,229.8,228,233.5,226.8,237.1z"/>
			<path fill="#423E3B" d="M258.1,242.6c-2.6-1.7-4.5-3.8-5.6-6c-2.4-10.9-3.2-10.9-3.5-10.9h-0.6v0.2c0,0.3-0.1,0.6-0.4,1.2l0,0.1
				l0,0.1c0.5,1.6,0.8,3,0.8,4.1c0,5.7-1.8,9-5.2,9.8c-2.6-0.3-3.9-1.1-3.9-2.3c0-5.6,1.9-9.3,5.6-11l1.6,0.4h0.7v-0.7l0,0
				c-0.5-0.9-0.9-1.4-1.5-1.4h-1.2h-0.1c-4.5,2.1-6.8,6.1-6.8,11.8c0,3,1.8,4.6,5.2,4.8c2,0,3.9-1,5.6-3l0,0v0
				c0.9-3.4,1.4-4.6,1.7-5c0.2,3.3,2.6,6.6,7.2,9.7l0,0h1.3c0.7,0,1.1-0.4,1.1-1.1v-1.1h-0.3C259.1,242.2,258.6,242.4,258.1,242.6z"
				/>
			<path fill="#423E3B" d="M272.1,231.6L272.1,231.6c-3,0-5.6,2.4-7.5,7.3h-0.1v-21.7l0.5-2.4l-1.1-0.6h-1.2v12.6
				c0,8.2-0.3,16.3-0.9,24.2v0.2h1.8v-0.9l2.1,0.4h2.3c4.4,0,7.2-4.5,8.4-13.5v-0.9C276.4,233.9,274.9,232.2,272.1,231.6z
				 M274.5,236.8c-1,8.1-3.4,12.1-7.1,12.1h-1.4c-0.6,0-1.2-0.1-1.6-0.3c0-6.6,2-11.6,5.8-14.7h2.7
				C273.6,233.9,274.2,234.9,274.5,236.8z"/>
		</g>
		<g id="animation_workshop">
			<path fill="#423E3B" d="M62.9,267.7h0.2c0.3,0,0.9,1.9,1.8,5.7c0.6,1.2,1.6,2.4,3.1,3.3c0.3-0.1,0.6-0.2,0.9-0.2v0.4
				c0,0.3-0.1,0.4-0.4,0.4h-0.7c-2.5-1.7-3.8-3.5-3.8-5.3c-0.3,0-0.6,0.9-1.1,2.9c-0.9,1-1.8,1.5-2.9,1.5c-1.8-0.1-2.7-0.9-2.7-2.4
				c0-3,1.2-5.1,3.5-6.2h0.6c0.2,0,0.4,0.2,0.7,0.6v0.2h-0.2l-0.9-0.2c-2.1,0.9-3.1,2.9-3.1,6c0,0.7,0.7,1.2,2.2,1.3
				c1.9-0.4,2.9-2.2,2.9-5.3c0-0.6-0.1-1.4-0.4-2.2C62.8,268,62.9,267.8,62.9,267.7z"/>
			<path fill="#423E3B" d="M73.8,267.2c2.1,0.6,3.1,2.1,3.1,4.6v1.5h-0.6v-0.9c0-2.5-0.7-4-2.2-4.6h-0.4c-1.2,0-2.1,2.3-2.7,6.8
				h-0.6v-0.2l-0.7-4.4h0.2c0.4,0.1,0.6,0.6,0.6,1.5h0.2C71.4,268.7,72.4,267.2,73.8,267.2z"/>
			<path fill="#423E3B" d="M81.6,267.7h0.6v6.6h-0.9l0.2-1.5V267.7z M82.5,261H83c0.3,0,0.4,0.2,0.4,0.4v0.4c0,0.2-0.2,0.4-0.7,0.7
				h-0.4c-0.3,0-0.4-0.1-0.4-0.4v-0.4C81.9,261.5,82.1,261.3,82.5,261z"/>
			<path fill="#423E3B" d="M94.4,268.1h0.7c1.6,1.2,2.4,3,2.4,5.7c-0.1,0.8-0.2,1.4-0.2,1.8H97c-0.3,0-0.4-0.1-0.4-0.4v-2.9
				c0-1.3-0.6-2.5-1.8-3.5h-0.2c-1.4,0-2.4,1.5-3.1,4.4h-0.3c-0.1,0-0.5-0.8-1.1-2.4l-0.9-0.7c-0.6,0-0.9,1.6-1.1,4.8v0.7h-0.4
				c-0.3,0-0.6-1-0.9-3.1V271h0.7v1.5h0.2c0.3-2.1,0.6-3.1,1.1-3.1h0.6c0.3,0.1,0.9,0.6,1.8,1.5h0.2
				C91.5,269.8,92.5,268.8,94.4,268.1z"/>
			<path fill="#423E3B" d="M107.3,267.7h0.2c0.3,0,0.9,1.9,1.8,5.7c0.6,1.2,1.6,2.4,3.1,3.3c0.3-0.1,0.6-0.2,0.9-0.2v0.4
				c0,0.3-0.1,0.4-0.4,0.4h-0.6c-2.5-1.7-3.8-3.5-3.8-5.3c-0.3,0-0.6,0.9-1.1,2.9c-0.9,1-1.8,1.5-2.9,1.5c-1.8-0.1-2.7-0.9-2.7-2.4
				c0-3,1.2-5.1,3.5-6.2h0.6c0.2,0,0.4,0.2,0.7,0.6v0.2h-0.2l-0.9-0.2c-2.1,0.9-3.1,2.9-3.1,6c0,0.7,0.7,1.2,2.2,1.3
				c1.9-0.4,2.9-2.2,2.9-5.3c0-0.6-0.1-1.4-0.4-2.2C107.2,268,107.3,267.8,107.3,267.7z"/>
			<path fill="#423E3B" d="M115,264.8h0.4c0.3,0,0.4,0.2,0.4,0.4v1.8l0.2,2.2c2.3-0.6,3.6-0.9,3.8-0.9c0.3,0,0.4,0.2,0.4,0.4v0.4
				H120l-0.4-0.2c-2.4,0.6-3.5,1.1-3.5,1.3v4.9c0,0.3-0.1,0.4-0.4,0.4h-0.2v-5.3l-2.2,0.2h-0.4v-0.7h0.2l2.2-0.2v-0.4
				C115.2,268.2,115.2,266.8,115,264.8z"/>
			<path fill="#423E3B" d="M122.9,267.7h0.6v6.6h-0.9l0.2-1.5V267.7z M123.8,261h0.4c0.3,0,0.4,0.2,0.4,0.4v0.4
				c0,0.2-0.2,0.4-0.7,0.7h-0.4c-0.3,0-0.4-0.1-0.4-0.4v-0.4C123.1,261.5,123.3,261.3,123.8,261z"/>
			<path fill="#423E3B" d="M132,266.8h1.1c1.4,0,2.5,1,3.3,3.1v0.7c-0.7,3.4-2.2,5.1-4.6,5.1c-1.7,0-2.9-1.2-3.8-3.8
				C129.1,268.5,130.4,266.8,132,266.8z M131.5,267.4c-1.6,1.6-2.6,3.1-2.9,4.4c0.9,2.1,2,3.1,3.3,3.1c2.5-0.6,3.7-2.3,3.7-5.3
				c-0.9-1.5-1.8-2.2-2.7-2.2c-0.5,0.3-0.9,0.4-1.1,0.4C132,267.6,131.8,267.4,131.5,267.4z"/>
			<path fill="#423E3B" d="M144.4,267.2c2.1,0.6,3.1,2.1,3.1,4.6v1.5h-0.6v-0.9c0-2.5-0.7-4-2.2-4.6h-0.4c-1.2,0-2.1,2.3-2.7,6.8
				h-0.6v-0.2l-0.7-4.4h0.2c0.4,0.1,0.6,0.6,0.6,1.5h0.2C141.9,268.7,142.9,267.2,144.4,267.2z"/>
			<path fill="#423E3B" d="M167.1,267.2c0.5,0,1,1.3,1.5,3.9c-0.6,2.7-1.8,4-3.5,4c-0.3,0-1-0.4-2-1.3c0,0.9-0.7,1.8-2.2,2.7
				c-1.3,0-2-1.8-2-5.3V269h0.9l-0.2,1.1v0.7c0.1,3.2,0.5,4.8,1.1,4.8h0.4c0.5,0,1-1.1,1.8-3.3h0.4c0,1,0.6,1.8,2,2.2
				c1.8-0.9,2.7-2,2.7-3.3c0-0.9-0.5-2-1.3-3.5C166.7,267.4,166.9,267.2,167.1,267.2z"/>
			<path fill="#423E3B" d="M176.4,266.8h1.1c1.4,0,2.5,1,3.3,3.1v0.7c-0.7,3.4-2.2,5.1-4.6,5.1c-1.7,0-2.9-1.2-3.8-3.8
				C173.5,268.5,174.9,266.8,176.4,266.8z M176,267.4c-1.6,1.6-2.6,3.1-2.9,4.4c0.9,2.1,2,3.1,3.3,3.1c2.5-0.6,3.7-2.3,3.7-5.3
				c-0.9-1.5-1.8-2.2-2.7-2.2c-0.5,0.3-0.9,0.4-1.1,0.4C176.4,267.6,176.2,267.4,176,267.4z"/>
			<path fill="#423E3B" d="M188.3,265.9h0.4v0.6c-1.5,0-2.4,0.4-2.9,1.3c0.1,2.7,0.2,4.4,0.2,5.1l-0.2,1.1H185v-0.7l0.4-0.6
				c-0.1-2.7-0.2-4.4-0.2-5.1C185.7,266.5,186.8,265.9,188.3,265.9z"/>
			<path fill="#423E3B" d="M191.1,259.3h0.4c0.3,0,0.6,0.6,0.9,2c-0.1,1-0.3,1.5-0.4,1.5c0.1,0.3,0.2,0.5,0.2,0.6
				c0.1,6.4,0.2,9.9,0.2,10.4L192,274h-0.2v-0.2c-0.1-4.4-0.2-7-0.2-7.7c-0.3,0-0.6-0.4-0.7-1.1l0.4-2.2c-0.1-1.3-0.2-2.4-0.2-3.3
				L191.1,259.3L191.1,259.3z M196.4,264.6c0.3,0,0.4,0.2,0.4,0.4c-2.1,1.9-3.2,3.1-3.3,3.5c2.2,0,3.3,0.5,3.3,1.5
				c0.4,1,0.7,2,0.7,2.9h-0.7c-0.4-2.5-1-3.7-1.8-3.7c-1.3,0.1-2.1,0.2-2.4,0.2v-0.9C192.9,267.9,194.1,266.6,196.4,264.6z"/>
			<path fill="#423E3B" d="M204.5,265h0.4c0.3,0,0.4,0.2,0.4,0.4v0.2h-0.7c-1.2,0-2.3,0.6-3.1,1.8v0.6c3.7,0.3,5.5,1.4,5.5,3.1
				c0.1,0,0.2,0.3,0.2,0.9c0,1.7-1.5,2.7-4.4,3.1c-1.9-0.2-2.9-0.5-2.9-0.9v-0.4h0.2c1.5,0.4,2.5,0.6,2.9,0.6c1.8,0,3-0.9,3.5-2.7
				c0-1.8-1.8-2.9-5.5-3.1l-0.4-0.7C200.7,266.5,202,265.5,204.5,265z"/>
			<path fill="#423E3B" d="M211.6,260.1h0.2v0.2c0.4,3.5,0.6,6,0.6,7.3v5.5h0.2c0.6-3.1,2-4.6,4-4.6h1.3c1.4,0,2.2,1.3,2.4,4
				c0.1,0.8,0.2,1.5,0.2,2.2v1.3c0,0.3-0.1,0.4-0.4,0.4h-0.4l0.2-1.1v-0.6c-0.3-3.3-0.8-5.1-1.3-5.3h-3c-0.6,0-1.7,2-3.1,6h-0.6
				v-0.3c0-1.6-0.1-2.9-0.2-4c0.1-1.5,0.2-2.8,0.2-3.7l-0.7-7.1L211.6,260.1z"/>
			<path fill="#423E3B" d="M228,266.8h1.1c1.4,0,2.5,1,3.3,3.1v0.7c-0.7,3.4-2.2,5.1-4.6,5.1c-1.7,0-2.9-1.2-3.8-3.8
				C225.1,268.5,226.5,266.8,228,266.8z M227.5,267.4c-1.6,1.6-2.6,3.1-2.9,4.4c0.9,2.1,2,3.1,3.3,3.1c2.5-0.6,3.7-2.3,3.7-5.3
				c-0.9-1.5-1.8-2.2-2.7-2.2c-0.5,0.3-0.9,0.4-1.1,0.4C228,267.6,227.8,267.4,227.5,267.4z"/>
			<path fill="#423E3B" d="M237.4,265.5c1.5,0,2.6,1.7,3.3,5.1c0,0.7-0.7,1.5-2.2,2.4c0.7,2.4,1.2,4.7,1.5,6.9h-0.4
				c-0.2,0-0.9-2.1-2.2-6.4h-0.2c0-0.2,0.1-0.4,0.2-0.6c-0.3-1.7-0.6-2.7-1.1-3.1C236.4,266.9,236.8,265.5,237.4,265.5z
				 M237.6,266.1c-0.3,0.5-0.4,0.9-0.4,1.3v0.2c0,0.3,0.4,1.9,1.1,4.6c1.2-0.6,1.8-1.4,1.8-2.4C239.4,268,238.6,266.8,237.6,266.1z"
				/>
		</g>
	</g>
</g>
<g id="Sur_Un_Baobab">
	<g id="Arc">
		<g>
			<path fill="#C8C6C5" d="M245.3,91.1c-1.1-2.5-70.9-115.5-173-46.3C49.6,61.2,39,64.2,43.6,104.6c2.1,17.9,6.6,43.2,13.7,55.8
				c3.6,6.4,8,12.6,13.1,18.5c6.3-1.7,12.3-2.2,12.6-2.2c9.5-0.9,12.1-1.5,16.8-3.6c4.4-1.9,24.3-6.2,24.3-6.3
				c-27.3-6.4-50.7-53.7-39-85.2c5.5-14.6,14.9-28.1,26.6-36.6c0,0,0,0,0.2-0.1c0,0-0.1,0.1-0.2,0.1c0.1,0,32.2-20.5,82.6,7.7
				c24.9,14,59.5,58.2,31,92c-12.2,14.5-29.6,18.1-49.8,25.1c4.1,4.6,17.1,0.9,24.1,5.1c8.1,4.9,25.8,7.7,35.5,10.6
				C250.4,163.4,258.7,122.2,245.3,91.1z M70.5,67.6L58,86.7l-6.2-18.1L70.5,67.6z M55,115.2l4.8-21l18.6,16.7L55,115.2z M79,118.3
				l0.5,5.1l-19.1,6.2l-2.8-6.8L79,118.3z M77.9,169.9l-16.7-23.4l30.2,1.8L77.9,169.9z M83.3,131.7l2.3,5.9l-23.9,3.4l-2-5.6
				L83.3,131.7z M78.2,63.3c0.2-0.8-16.2-2.1-18.9-2.5c-1.9-0.2,3.9-5.1,3.9-5.1l19.7,4.1L78.2,63.3z M87,56.2l-16.9-5.6l7.2-3.5
				l12.8,7.3L87,56.2z M94.5,53.1l-10.2-9.2l19.2-4.8L94.5,53.1z M107.4,38l6.9-7.6l8.8,6.6L107.4,38z M126.7,36.2l-5.7-7l4.7-2.4
				l5.8,8.4L126.7,36.2z M137.7,33.3l-4.1-7.4l4.9-0.8l4.1,8.6L137.7,33.3z M248.8,112.8H239l-0.9-4.9l9.8-0.6L248.8,112.8z
				 M246.7,102l-9.7,1.8l1-9.7L246.7,102z M147.2,34.2l-2.5-7.8l14,7L147.2,34.2z M171.4,38.7l-9-5.4l10.7-0.8L171.4,38.7z
				 M174.3,41.2l4.1-7l2.9,1.6l-4.1,4.5L174.3,41.2z M181.3,42.4l4.5-4.1l3.3,2.1l-5.4,2.9L181.3,42.4z M187.1,45.7l5.4-3.7l5.4,5.7
				L187.1,45.7z M199.8,49.8l7.4,2.1l-3.7,2.9L199.8,49.8z M205.9,57.6l4.5-3.3l2.1,2.5l-3.7,2.5L205.9,57.6z M210.9,61.3
				c0,0,0.3-0.2,0.9-0.4c1.5-0.7,4.5-2.1,4.5-2.1l1.2,2.5l-4.5,2.1L210.9,61.3z M220.3,63.8l3.3,4.9l-8.2-2.5L220.3,63.8z
				 M223.6,71.2l6.2,2.9l-5.4,2.9L223.6,71.2z M226.9,79.4l6.2-2.5l1.5,2.1l-6.5,2.1L226.9,79.4z M229.1,83.1l7-2.5l0.7,2.1
				l-5.7,2.1L229.1,83.1z M231.5,87.4l6.6-2.3l-0.4,6.6L231.5,87.4z M205.1,173.6c0,0,7.3-8.8,8.5-8.2c1.2,0.6,19,11.6,19,11.6
				L205.1,173.6z M236,174.1l-22.6-12.8l7-2.6l18.9,9.5L236,174.1z M240.2,162.9l-16.4-7.3l3.1-4.3l15.7,6.5L240.2,162.9z
				 M229.7,147.2l9.8-7.6l5.6,13.6L229.7,147.2z M240.8,136.2l-3.1-10.8l10.4,5.1L240.8,136.2z M239.8,120.7l-1.1-4.5l10.5,2.1
				l-0.3,5.9L239.8,120.7z"/>
		</g>
	</g>
	<path id="Boabab" fill="#423E3B" d="M179.1,64.9c0,6.6-8.3,6-14.7,7.2c-1.6,0.3-7.4,2.1-8.2,2.4c-0.3,0.8-0.2,4.6-0.4,5.4
		c-0.1,0.5,8.1-8.2,8-7.7c-0.1,0.6-7.1,10.8-6.9,13.7c0.7,7.4,2.1,10.2,14.6,21.1c10.6-2.3,16.9-15.7,17.6-20.3
		c-1.3,0.2-10.8-1.9-11.3-2.6c1.6-2.1,3.4-0.4,3.4-1.6s1.8-2.9,3.1-3.4c1.3-0.5,5.9-0.8,5.9-0.9c0-0.2-2.5-1-5.8-0.9
		c1.2-2.3,5-2.7,12.6-3.4c2.6-0.2,4.7,6.4,7,6.4c2.3,0,3,5.6,1.5,6.1c-1.3,0.9-10.8,0.5-14.5,0.6c-0.8,2.8-1.8,7.4-3.6,11.3
		c-1.9,4.1-3.4,9.2-3.4,13.4c0,5.7,0.3,5.6,1.3,9.8c2.4,0.9,7,3.9,11.9,2.7c2.5-0.6,3.9-2.7,6.6-4.7c-2.4,0.3-12-3.3-7.4-8.7
		c2.4-2.8,9.9-0.6,11.3-2.8c2.4-3.6,11.6,3.5,14.1,6.7c0.5,0.6,0.3,0.2-2.5,0.2c-2.5,0-4.1,0.4-4.1,0.6c1.1,0.1,2.9,0.2,4.5,0.4
		c3.6,0.5,4.2,0.6,3.8,2.1c-2.1,4.5-3.7,4.3-6,3.8s-7-0.5-11.2-0.2c-2.7,1.1-4.8,5-7,6.7c-0.3,0.2-16.1,7.1-15.9,6.8
		c-0.6,1-2.7,16.4-4.7,21.8c-3.8,10-8.6,11.2-7.5,12.5c4,5.4,9.8,4.2,18.9,5.7c5,0.9,8,3,12,4.5c3,0.8,6,1.5,8.9,2.3
		c0,0.2-0.1,0.4-0.1,0.6c-4.2,2.1-13.5-1.7-18-2.5c-0.8,0-10.3,0.2-14.2,0.3c-3.5,0.6-8.4,1.2-12.1,0.4c-3-0.6-11.9-4.2-14.7-2.1
		c-2.4,1.7-7,4.7-3.7,6.1c1.9,0.8,3.8,5.3,3.5,6.3c0.3-0.5-0.2,1.3-2.1,0.1c-1.2-0.7-9.2-6.3-9.8-7.7c-0.9-2-0.3-6.8-2.5-7.4
		c0.5,0.1-15.3,2.3-12.3,1.8c-6.4,1-10.9-2.4-16.7-1.3c-2.6,0.5-9.8,3-12,2.1c0.1-0.6,0.2-0.6,0.5-1c4.1-1.7,7.7-4.1,12.8-5.1
		c3.7-0.7,8.3,0.3,11.7-0.7c5-1.5,6.4-5.2,13.1-5.2c-2.1-8-4.5-16.4-2.7-25.3c1.3-9.5,2.9-12,3.5-17.6c-2.4-3.8-6.1-10.5-11-14.2
		c-0.1,0-0.7,0.5-0.8,0.5c-0.6,0.9-2.2,1.7-2.6,2.5c-0.8,1.7,0.2,4.8-1.3,5.9c-0.9,0-3.2-1.2-3.8-1.6c-0.5-1.5,0.2-1.5,1.9-1.5
		c0-1,0-2.6,0.8-4c-0.3-0.3-0.6-0.7-0.9-1c-0.4-0.7,0.3-2.2,0.6-3.1c-0.1-0.1-0.1-0.1-0.2-0.2c-0.6,0.8-1.2,1.6-1.8,2.4
		c-0.5,0.1-0.7,0-1.2-0.1c-0.6,1-1.2,1.9-1.3,6.6c-0.2,1.2-4.4-0.8-4.4-1.5c-0.1-1,0.6-1.2,2.1-1.5c0-2.1,0-3.3,0.7-4.7
		c-0.2-0.8-0.3-1.8-0.5-2.6c0.2-1.4,1-2,1.8-3.2c-0.4-0.9-3.6-2.8-4.2-3.1c-1.7,1.1-0.9,3.3-2.1,3.5c-0.5-0.3-1.5-0.6-2.1-0.8
		c-1.5,1.5-0.4,6-0.7,6.5c-0.3,0.5-5.2,1.4-5.1-0.2c0.2-0.6,0.9-1,2-1.5c0.1-0.6-0.3-2.6,0.4-5.2c0.2-0.6-0.7-0.5-0.6-0.9
		c0.2-1.4,1.1-3.1,1.1-3.1c-0.3-0.3-0.5-0.2-0.8-0.3c-0.5-0.1-2,1.7-2.9,2.1c-0.6,0.3-1.1,0-1,0c-2.4,1.9-1.2,6.6-1.8,6.8
		c-3.4,1.1-5.4-0.6-5.1-1.2c0.3-0.2,0.9-1.2,2.3-1c0.2-1.9,0.1-4.2,1.3-6.3c0.3-0.5-1.2-1-1-1.5c0.9-2.1,1.8-3.5,4-4.6
		c-5.7-4.5-4.8-6-10.4-10.5c-2.8,1.9-13.8,4-15.6,1.9c-2.4-2.8-0.4-9.2,3.4-8.3c3.9,0.9,12.6,0,12.6,0s-14.6,0.4-10.4-4.4
		c1.8-2.1,3-3.2,5.1-3.4c4-0.3,4.8,0.7,5.7,0.9s1.7,0.1,2.1-0.1c0.8-0.4,3.3-0.8,4.8,3.2c0.6,1.6,2.3,6,0.7,7.9
		c-3.6,1.2-5.5,1.2-4.9,2c3,4.2,6.8,6,8.9,7.5c1.3-2.2,6.2-6,9.2-8.1c-3.6-1.6-4.2-4.1-4.9-6.6c-1.4-4.5,1.4-6.8,2.7-9.8
		c0.3,0,0.4-1.8,0.6-1.8c0.6,0.9,1.2,1.7,2.7,1.8c0.4-0.5,0.8-0.9,1.2-1.5c0.8,0.6,0.3,1,1,1.6c1,0.3,3,0.1,3.7,0.6
		c3.6,2.4,4.3,7.9,2.7,12.5c-0.6,1.7-2.1,3-2.6,4.5c-0.4,1.5,0.7,4.2,0.2,6.3c-0.6,2.5-1.4,5.4-1.8,8c1,0.7,1.4,1,2.6,1.5
		c3.1-2,7-6.6,9.5-8.5c-1.7-0.3-5-4.2-4.3-8.5c0.4-2.8,0.7-3.5,2.1-5.6c0.9-1.3,4.9-2.1,7.2-2.1c5.7,0.3,7.8,9.2,6,15.1
		c-0.8,2.5-1.7,7.5,1.5,7.8c0.4-0.3,1.9-1.1,2-1.3c0.1-0.3-0.4-0.7-0.5-0.8c-0.1-0.1-1.8,1-1.8,1s-0.5-0.8-0.4-0.9
		c0-0.1,0.6-1.7,0.8-1.8c0.1-0.1,2.2-0.8,2.5-0.5c0.3,0.2,0.9,1.7,1.1,2.9c0.3,1.7-0.7,4.8-3.6,5.6c-1.8,0-4.3-0.7-5.4-2
		c-0.7-0.8-0.6-0.7-1.6-2.5c-0.6,3.1-2.8,4.8-2.9,8.1c7.4,3.7,11,4.1,14.2,4.2c10.4-3.4,5.4-19.1,12.8-32.1
		c-3.5,1.4-4.8-3.5-8.3-3.3c-4.8,0.3-7.4-6.6-3.6-7.7c3.8-1.6,13.8-2.1,13.8-2.1s-5.7-1.3-11.1-0.1c-2.7,0.6,0.1-1.9,0.6-2.3
		c4.2-2.7,6.6-1.4,13.9-1.1c5-0.9,13.3-1.6,15.9,2.7c1.3,2.1,3,3-4.3,3.1C171.4,63.9,177.6,65.4,179.1,64.9z"/>
	<g display="none">
		
			<text transform="matrix(1 0 0 1 18.479 235.6826)" display="inline" fill="#423E3B" font-family="'PWLeftHand'" font-size="42.804">S</text>
		
			<text transform="matrix(1 0 0 1 18.479 235.6826)" display="inline" fill="none" stroke="#423E3B" stroke-miterlimit="10" font-family="'PWLeftHand'" font-size="42.804">S</text>
		
			<text transform="matrix(0.15 0 0 1 35.0864 243.4648)" display="inline" fill="#423E3B" font-family="'PWLeftHand'" font-size="38.9127"> </text>
		
			<text transform="matrix(0.15 0 0 1 35.0864 243.4648)" display="inline" fill="none" stroke="#423E3B" stroke-miterlimit="10" font-family="'PWLeftHand'" font-size="38.9127"> </text>
		
			<text transform="matrix(1 0 0 1 36.8369 243.4648)" display="inline" fill="#423E3B" font-family="'PWLeftHand'" font-size="38.9127">u</text>
		
			<text transform="matrix(1 0 0 1 36.8369 243.4648)" display="inline" fill="none" stroke="#423E3B" stroke-miterlimit="10" font-family="'PWLeftHand'" font-size="38.9127">u</text>
		
			<text transform="matrix(0.15 0 0 1 53.2969 235.6826)" display="inline" fill="#423E3B" font-family="'PWLeftHand'" font-size="38.9127"> </text>
		
			<text transform="matrix(0.15 0 0 1 53.2969 235.6826)" display="inline" fill="none" stroke="#423E3B" stroke-miterlimit="10" font-family="'PWLeftHand'" font-size="38.9127"> </text>
		
			<text transform="matrix(1 0 0 1 55.0479 235.6826)" display="inline" fill="#423E3B" font-family="'PWLeftHand'" font-size="38.9127">r</text>
		
			<text transform="matrix(1 0 0 1 55.0479 235.6826)" display="inline" fill="none" stroke="#423E3B" stroke-miterlimit="10" font-family="'PWLeftHand'" font-size="38.9127">r</text>
		
			<text transform="matrix(0.5 0 0 1 67.9663 235.6826)" display="inline" fill="#423E3B" font-family="'PWLeftHand'" font-size="38.9127">   </text>
		
			<text transform="matrix(0.5 0 0 1 67.9663 235.6826)" display="inline" fill="none" stroke="#423E3B" stroke-miterlimit="10" font-family="'PWLeftHand'" font-size="38.9127">   </text>
		
			<text transform="matrix(1.3 0 0 1 85.4761 241.5205)" display="inline" fill="#423E3B" font-family="'PWLeftHand'" font-size="35.0215">Un </text>
		
			<text transform="matrix(1.3 0 0 1 85.4761 241.5205)" display="inline" fill="none" stroke="#423E3B" stroke-miterlimit="10" font-family="'PWLeftHand'" font-size="35.0215">Un </text>
		
			<text transform="matrix(1 0 0 1 134.3262 247.3564)" display="inline" fill="#423E3B" font-family="'Weaselbeebeans'" font-size="46.6953" letter-spacing="2">B</text>
		
			<text transform="matrix(1 0 0 1 134.3262 247.3564)" display="inline" fill="none" stroke="#423E3B" stroke-miterlimit="10" font-family="'Weaselbeebeans'" font-size="46.6953" letter-spacing="2">B</text>
		
			<text transform="matrix(1 0 0 1 172.4805 243.4648)" display="inline" fill="#423E3B" font-family="'Weaselbeebeans'" font-size="38.9127" letter-spacing="1">a</text>
		
			<text transform="matrix(1 0 0 1 172.4805 243.4648)" display="inline" fill="none" stroke="#423E3B" stroke-miterlimit="10" font-family="'Weaselbeebeans'" font-size="38.9127" letter-spacing="1">a</text>
		
			<text transform="matrix(1 0 0 1 195.9531 239.998)" display="inline" fill="#423E3B" font-family="'PWLeftHand'" font-size="38.9127" letter-spacing="1">o</text>
		
			<text transform="matrix(1 0 0 1 195.9531 239.998)" display="inline" fill="none" stroke="#423E3B" stroke-miterlimit="10" font-family="'PWLeftHand'" font-size="38.9127" letter-spacing="1">o</text>
		
			<text transform="matrix(1 0 0 1 217.1992 241.5205)" display="inline" fill="#423E3B" font-family="'PWLeftHand'" font-size="46.6953" letter-spacing="2">b</text>
		
			<text transform="matrix(1 0 0 1 217.1992 241.5205)" display="inline" fill="none" stroke="#423E3B" stroke-miterlimit="10" font-family="'PWLeftHand'" font-size="46.6953" letter-spacing="2">b</text>
		
			<text transform="matrix(1 0 0 1 235.9238 243.4648)" display="inline" fill="#423E3B" font-family="'Weaselbeebeans'" font-size="38.9127" letter-spacing="1">a</text>
		
			<text transform="matrix(1 0 0 1 235.9238 243.4648)" display="inline" fill="none" stroke="#423E3B" stroke-miterlimit="10" font-family="'Weaselbeebeans'" font-size="38.9127" letter-spacing="1">a</text>
		
			<text transform="matrix(1 0 0 1 259.3975 251.248)" display="inline" fill="#423E3B" font-family="'Weaselbeebeans'" font-size="42.804" letter-spacing="1">b</text>
		
			<text transform="matrix(1 0 0 1 259.3975 251.248)" display="inline" fill="none" stroke="#423E3B" stroke-miterlimit="10" font-family="'Weaselbeebeans'" font-size="42.804" letter-spacing="1">b</text>
	</g>
	
		<text transform="matrix(1 0 0 1 56.2866 276.8809)" display="none" fill="#423E3B" enable-background="new    " font-family="'Weaselbeebeans'" font-size="20.6335">animation workshop</text>
</g>
</svg>
